<svg width="210" height="25" viewBox="0 0 210 25" fill="none" xmlns="http://www.w3.org/2000/svg">
<g clip-path="url(#clip0_23_1044)">
<g clip-path="url(#clip1_23_1044)">
<path d="M11.5241 3.21887L0.0666853 23.2923C-0.0996524 23.6474 0.0666853 23.8832 0.461427 23.8832H4.79117C4.9835 23.8832 5.1724 23.8323 5.33873 23.7357C5.50506 23.6391 5.6429 23.5003 5.7383 23.3333L17.0468 3.53044L11.5241 3.21887Z" fill="#FFB71B"/>
<path d="M23.4657 23.2899L26.1693 1.39912C26.1736 1.31687 26.194 1.23627 26.2295 1.16193C26.2649 1.08758 26.3147 1.02096 26.3759 0.965852C26.4371 0.910748 26.5086 0.868248 26.5862 0.840779C26.6639 0.81331 26.7462 0.801411 26.8284 0.805764H34.7729C39.8164 0.805764 42.8502 3.67323 42.3226 8.02531L41.2675 16.6625C40.74 21.0133 36.9812 23.882 31.9377 23.882H23.9932C23.6308 23.882 23.4334 23.6511 23.4657 23.2887V23.2899ZM29.4985 19.2022H32.7297C34.444 19.2022 35.7622 17.8492 36.0924 15.7402L36.9167 8.9501C37.1798 6.83985 36.1582 5.4868 34.3782 5.4868H31.1805C31.1204 5.4909 31.0639 5.51671 31.0214 5.55941C30.9789 5.60212 30.9534 5.65881 30.9496 5.71893L29.3011 18.9713C29.3011 19.1029 29.3669 19.201 29.4998 19.201L29.4985 19.2022ZM44.4639 15.6421L45.2882 9.04816C45.9138 3.97114 49.8041 0.542603 55.0127 0.542603C60.2548 0.542603 63.3209 3.97114 62.694 9.04816L61.9033 15.6421C61.2777 20.8172 57.3539 24.2445 52.113 24.2445C46.9031 24.2445 43.8371 20.8172 44.4639 15.6421ZM56.5619 15.8059L57.4184 8.98237C57.6828 6.74054 56.4961 5.22364 54.4516 5.22364C52.4407 5.22364 50.8592 6.74054 50.5961 8.98237L49.7718 15.8059C49.4739 18.0813 50.6619 19.5647 52.6728 19.5647C54.716 19.5647 56.2975 18.0813 56.5619 15.8059ZM75.7466 23.4215L73.3384 15.7488C73.3154 15.6752 73.2653 15.613 73.1983 15.5748C73.1313 15.5366 73.0523 15.5251 72.9772 15.5428L70.8135 16.0604C70.7228 16.0821 70.6409 16.1309 70.5786 16.2003C70.5162 16.2697 70.4766 16.3564 70.4647 16.4489L69.5809 23.2887C69.5745 23.4496 69.5055 23.6016 69.3886 23.7124C69.2718 23.8232 69.1163 23.8841 68.9553 23.882H64.8018C64.4393 23.882 64.2407 23.6524 64.2742 23.2887L66.9779 1.39912C66.9865 1.23323 67.0607 1.07756 67.184 0.96631C67.3074 0.855057 67.4699 0.797314 67.6358 0.805764H76.9333C81.1861 0.805764 83.6377 3.70178 83.1312 7.95952C82.8507 10.3131 81.515 12.7113 78.5917 14.2406C78.4942 14.2898 78.4175 14.3724 78.3756 14.4733C78.3337 14.5741 78.3293 14.6867 78.3633 14.7905C78.9405 16.4936 81.2854 23.1906 81.2854 23.1906C81.4169 23.5853 81.1538 23.882 80.7578 23.882H76.3734C76.0433 23.882 75.8459 23.7504 75.7466 23.4215ZM71.7582 5.71769L71.0308 11.7692C71.0263 11.8031 71.0301 11.8377 71.0419 11.8699C71.0537 11.9021 71.0731 11.931 71.0985 11.954C71.1238 11.9771 71.1544 11.9937 71.1876 12.0023C71.2208 12.011 71.2556 12.0115 71.289 12.0038C72.0611 11.8213 74.3637 11.259 75.1495 11.0479C77.1307 10.5142 77.7017 9.33491 77.8481 7.83539C77.971 6.57296 77.2734 5.4868 75.4834 5.4868H71.9866C71.9269 5.49115 71.8708 5.51691 71.8286 5.55933C71.7864 5.60176 71.761 5.65799 71.757 5.71769H71.7582ZM84.663 15.6408L85.486 9.04816C86.1129 3.97114 90.0032 0.542603 95.2118 0.542603C100.454 0.542603 103.519 3.97114 102.893 9.04816L102.101 15.6421C101.476 20.8172 97.5517 24.2445 92.3108 24.2445C87.1022 24.2445 84.0362 20.8172 84.663 15.6421V15.6408ZM96.761 15.8059L97.6175 8.98237C97.8819 6.74054 96.6952 5.22364 94.6507 5.22364C92.6398 5.22364 91.0583 6.74054 90.7939 8.98237L89.9697 15.8059C89.673 18.0813 90.8597 19.5647 92.8707 19.5647C94.9151 19.5647 96.4978 18.0813 96.761 15.8059ZM105.785 16.5979L106.841 8.05883C107.371 3.54289 110.897 0.542603 115.545 0.542603C120.226 0.542603 122.962 3.44358 122.434 7.82918C122.402 8.05883 122.204 8.19041 121.908 8.22392L119.764 8.35551C119.467 8.38902 119.302 8.28972 119.336 8.15689V7.95828C119.698 5.15661 118.05 3.27848 115.215 3.27848C112.379 3.27848 110.269 5.15661 109.907 7.95828L108.819 16.7282C108.489 19.5312 110.138 21.4105 113.006 21.4105C115.841 21.4105 117.918 19.5312 118.281 16.7282C118.281 16.4974 118.479 16.3335 118.808 16.3658L120.885 16.4974C121.182 16.5309 121.347 16.5644 121.347 16.6625L121.313 16.8276C120.786 21.2119 117.325 24.1787 112.642 24.1787C107.995 24.1787 105.226 21.1461 105.787 16.5979H105.785ZM124.949 23.388L127.653 1.30105C127.665 1.16257 127.73 1.03406 127.834 0.941944C127.938 0.849825 128.073 0.801092 128.212 0.805764H130.323C130.587 0.805764 130.751 1.00438 130.719 1.30105L128.015 23.388C128.005 23.5216 127.945 23.6466 127.848 23.7383C127.75 23.83 127.621 23.8817 127.488 23.8832H125.377C125.081 23.8832 124.915 23.6846 124.949 23.388ZM133.154 23.388L135.858 1.30105C135.87 1.16235 135.935 1.03366 136.04 0.941506C136.144 0.849354 136.28 0.800768 136.419 0.805764H138.462C138.573 0.798902 138.684 0.827046 138.779 0.886254C138.873 0.945462 138.947 1.03277 138.99 1.13596L146.77 17.4544C146.803 17.586 146.934 17.5537 146.968 17.3886L148.945 1.30105C148.955 1.16743 149.015 1.0424 149.112 0.950689C149.21 0.858977 149.339 0.80726 149.473 0.805764H151.583C151.881 0.805764 152.045 1.00438 152.011 1.30105L149.309 23.388C149.296 23.5267 149.231 23.6554 149.127 23.7475C149.023 23.8397 148.887 23.8882 148.748 23.8832H146.671C146.56 23.8901 146.449 23.862 146.354 23.8028C146.26 23.7435 146.186 23.6562 146.143 23.5531L138.364 7.13528C138.33 7.0037 138.199 7.03598 138.165 7.20231L136.221 23.3892C136.211 23.5228 136.151 23.6477 136.053 23.7392C135.955 23.8307 135.827 23.8821 135.693 23.8832H133.582C133.287 23.8832 133.122 23.6846 133.154 23.388ZM170.388 3.54289H159.244C159.198 3.5443 159.153 3.56119 159.117 3.59088C159.082 3.62056 159.057 3.66134 159.047 3.70674L158.19 10.7289C158.186 10.7682 158.198 10.8076 158.222 10.8385C158.247 10.8694 158.283 10.8893 158.322 10.894H165.938C166.233 10.894 166.398 11.0926 166.366 11.3881L166.167 13.1358C166.101 13.4325 165.903 13.6299 165.606 13.6299H157.992C157.97 13.6284 157.948 13.6317 157.927 13.6395C157.906 13.6473 157.887 13.6594 157.872 13.675C157.856 13.6906 157.844 13.7094 157.836 13.7301C157.829 13.7508 157.825 13.7729 157.827 13.795L156.937 20.9823C156.937 21.0816 156.969 21.1474 157.068 21.1474H168.244C168.541 21.1474 168.706 21.346 168.672 21.6414L168.441 23.3892C168.431 23.5224 168.371 23.6469 168.274 23.7384C168.177 23.8298 168.049 23.8815 167.915 23.8832H154.003C153.706 23.8832 153.542 23.6846 153.574 23.3892L156.278 1.29981C156.29 1.16155 156.355 1.03335 156.459 0.941492C156.563 0.849632 156.699 0.80107 156.837 0.805764H170.75C171.013 0.805764 171.178 1.00438 171.146 1.29981L170.948 3.0476C170.935 3.18585 170.87 3.31406 170.766 3.40592C170.662 3.49778 170.526 3.54634 170.388 3.54164V3.54289ZM171.589 23.3892L174.293 1.29981C174.305 1.16111 174.37 1.03242 174.475 0.940264C174.579 0.848113 174.715 0.799526 174.854 0.804522H176.997C177.108 0.797661 177.219 0.825805 177.313 0.885013C177.408 0.944221 177.482 1.03153 177.524 1.13471L181.809 9.96923C181.842 10.1016 181.908 10.1016 182.008 9.96923L188.501 1.13471C188.558 1.0286 188.644 0.941065 188.749 0.882525C188.855 0.823986 188.974 0.79691 189.095 0.804522H191.237C191.534 0.804522 191.699 1.00313 191.665 1.29981L188.963 23.3867C188.951 23.5254 188.886 23.6541 188.781 23.7463C188.677 23.8384 188.541 23.887 188.402 23.882H186.292C186.229 23.8863 186.167 23.8754 186.11 23.8503C186.053 23.8252 186.003 23.7867 185.964 23.7379C185.925 23.6892 185.899 23.6318 185.887 23.5706C185.876 23.5095 185.879 23.4463 185.897 23.3867L187.939 6.64248C187.972 6.47614 187.84 6.44386 187.74 6.57544L182.499 13.8943C182.432 13.9988 182.339 14.0841 182.229 14.1418C182.12 14.1995 181.997 14.2276 181.872 14.2233H180.851C180.74 14.2302 180.629 14.2022 180.534 14.1433C180.44 14.0843 180.366 13.9973 180.323 13.8943L176.928 6.57544C176.862 6.44386 176.73 6.47614 176.697 6.64123L174.653 23.3892C174.643 23.5226 174.583 23.6473 174.485 23.7388C174.388 23.8302 174.259 23.8818 174.125 23.8832H172.015C171.72 23.8832 171.556 23.6846 171.588 23.3892H171.589ZM206.725 23.4885L206.066 19.7956C206.032 19.7298 206.032 19.6627 205.933 19.6627H197C196.901 19.6627 196.869 19.7298 196.835 19.7956L195.254 23.4873C195.212 23.6091 195.131 23.7139 195.024 23.7854C194.917 23.857 194.789 23.8913 194.661 23.8832H192.385C192.056 23.8832 191.923 23.6846 192.089 23.3222L201.715 1.20175C201.757 1.0801 201.838 0.975624 201.945 0.904324C202.052 0.833024 202.18 0.798837 202.308 0.807005H205.242C205.3 0.799585 205.36 0.803976 205.417 0.81992C205.473 0.835863 205.526 0.863035 205.573 0.899831C205.619 0.936627 205.657 0.982302 205.685 1.03416C205.714 1.08601 205.731 1.143 205.737 1.20175L209.99 23.3222C210.056 23.6524 209.89 23.8832 209.528 23.8832H207.22C207.103 23.8929 206.986 23.8573 206.894 23.7836C206.803 23.71 206.742 23.6039 206.726 23.4873L206.725 23.4885ZM198.12 17.1577H205.439C205.538 17.1577 205.604 17.092 205.571 16.9591L203.395 4.66256C203.362 4.49747 203.231 4.49747 203.197 4.66256L198.021 16.9591C197.955 17.092 198.021 17.1577 198.12 17.1577ZM21.1469 23.2924L16.5192 0.985756C16.4534 0.691562 16.2225 0.543844 15.8936 0.543844H11.7153C11.3255 0.543844 11.0326 0.861623 11.107 1.20423L14.1905 16.084L9.19291 17.2819L6.7326 21.5893L14.9254 19.6255L15.695 23.3321C15.7272 23.4877 15.8121 23.6275 15.9353 23.7279C16.0585 23.8283 16.2126 23.8831 16.3715 23.8832H20.5858C21.0141 23.8832 21.2114 23.6474 21.1456 23.2924H21.1469Z" fill="#CF2028"/>
<path d="M11.5241 3.21887L13.0423 10.539L11.5241 13.2016V3.21887Z" fill="#FF7F30"/>
<path d="M8.57225 21.1486L11.04 16.8412L9.19415 17.2806L6.73384 21.588L8.57225 21.1486Z" fill="#9E3223"/>
</g>
</g>
<defs>
<clipPath id="clip0_23_1044">
<rect width="210" height="23.69" fill="white" transform="translate(0.00213623 0.549133)"/>
</clipPath>
<clipPath id="clip1_23_1044">
<rect width="210" height="23.7031" fill="white" transform="translate(0.00213623 0.542603)"/>
</clipPath>
</defs>
</svg>
